<?xml version="1.0" standalone="no"?>
<!DOCTYPE svg PUBLIC "-//W3C//DTD SVG 20010904//EN"
 "http://www.w3.org/TR/2001/REC-SVG-20010904/DTD/svg10.dtd">
<svg version="1.0" xmlns="http://www.w3.org/2000/svg"
 width="2051.000000pt" height="721.000000pt" viewBox="0 0 2051.000000 721.000000"
 preserveAspectRatio="xMidYMid meet">

<g transform="translate(0.000000,721.000000) scale(0.100000,-0.100000)"
fill="#000000" stroke="none">
<path d="M13109 6318 l-247 -61 -6 -36 c-3 -20 -6 -74 -6 -120 0 -82 0 -83 23
-77 27 9 453 115 483 121 26 6 34 44 34 158 0 67 -2 77 -17 76 -10 0 -129 -28
-264 -61z"/>
<path d="M13310 5949 c-268 -57 -620 -156 -840 -236 l-104 -38 -8 -40 c-5 -22
-7 -81 -6 -131 l3 -91 125 49 c274 107 595 204 847 255 152 31 143 19 143 174
0 65 -3 89 -12 88 -7 0 -74 -14 -148 -30z"/>
<path d="M13440 5545 c-353 -62 -810 -209 -1182 -379 -77 -35 -78 -36 -78 -73
0 -21 -3 -82 -7 -136 l-6 -97 164 76 c468 216 901 350 1232 380 l75 7 6 45 c3
24 6 80 6 123 l0 79 -37 -1 c-21 0 -99 -11 -173 -24z"/>
<path d="M14771 4799 c-51 -10 -116 -41 -149 -72 -78 -72 -106 -214 -62 -315
66 -154 264 -217 427 -136 l58 29 3 113 3 112 -91 0 -90 0 0 -40 0 -40 40 0
40 0 0 -49 c0 -48 -1 -50 -36 -61 -54 -18 -145 -8 -186 20 -50 34 -80 83 -86
139 -9 100 43 180 135 207 64 19 109 13 172 -22 l45 -25 30 31 31 30 -30 25
c-56 45 -172 70 -254 54z"/>
<path d="M15411 4799 c-98 -19 -173 -77 -212 -163 -28 -61 -25 -167 5 -231 99
-213 425 -220 534 -11 35 67 38 177 6 246 -56 118 -197 186 -333 159z m116
-91 c115 -28 173 -168 118 -278 -49 -96 -189 -130 -283 -68 -127 85 -100 292
45 343 48 18 63 18 120 3z"/>
<path d="M18517 4800 c-88 -15 -177 -85 -213 -168 -10 -22 -17 -65 -18 -107 0
-58 5 -81 28 -128 104 -213 442 -206 539 12 13 30 20 68 20 111 1 186 -160
313 -356 280z m162 -110 c105 -59 124 -231 34 -312 -80 -72 -223 -59 -289 27
-23 31 -29 50 -32 106 -4 56 0 74 19 109 52 92 172 123 268 70z"/>
<path d="M20147 4799 c-71 -11 -147 -58 -184 -113 -100 -146 -54 -332 101
-414 44 -23 63 -27 141 -27 78 0 97 4 141 27 54 28 103 77 130 131 23 43 30
154 14 203 -46 140 -187 219 -343 193z m153 -104 c81 -42 120 -151 86 -243
-16 -45 -70 -98 -113 -113 -52 -17 -135 -7 -178 22 -40 27 -85 108 -85 153 0
89 59 173 137 194 44 12 116 6 153 -13z"/>
<path d="M15820 4794 c0 -4 53 -128 117 -275 l117 -269 51 0 52 0 116 268 c65
147 117 270 117 275 0 4 -21 7 -48 7 l-47 0 -89 -205 c-49 -113 -92 -207 -95
-210 -4 -2 -47 91 -96 206 l-90 209 -52 0 c-29 0 -53 -3 -53 -6z"/>
<path d="M16490 4525 l0 -275 205 0 205 0 0 40 0 40 -155 0 -155 0 0 80 0 80
130 0 130 0 0 40 0 40 -130 0 -130 0 0 70 0 70 150 0 150 0 0 45 0 45 -200 0
-200 0 0 -275z"/>
<path d="M17050 4526 l0 -276 50 0 50 0 0 80 0 80 73 0 72 0 54 -80 55 -80 53
0 c41 0 52 3 47 13 -4 6 -32 46 -61 88 l-53 76 37 24 c53 34 76 80 76 148 0
83 -33 135 -113 177 -28 15 -65 19 -187 22 l-153 4 0 -276z m300 169 c38 -20
50 -43 50 -98 0 -75 -53 -107 -176 -107 l-74 0 0 110 0 110 85 0 c57 0 96 -5
115 -15z"/>
<path d="M17650 4525 l0 -275 50 0 50 0 0 180 c0 99 3 180 8 180 4 0 72 -81
152 -180 l145 -180 43 0 42 0 0 275 0 275 -50 0 -50 0 -2 -185 -3 -184 -150
184 -149 185 -43 0 -43 0 0 -275z"/>
<path d="M19270 4525 l0 -277 168 4 c187 4 227 14 291 79 105 104 102 295 -7
390 -70 62 -110 72 -289 77 l-163 4 0 -277z m311 174 c40 -14 85 -53 106 -93
25 -47 14 -154 -19 -198 -40 -53 -87 -71 -200 -76 l-98 -5 0 192 0 191 89 0
c48 0 103 -5 122 -11z"/>
<path d="M3481 4125 c-87 -27 -133 -104 -111 -185 14 -53 57 -84 170 -122 100
-33 130 -54 130 -92 0 -65 -117 -88 -216 -42 -28 13 -55 29 -58 35 -13 20 -25
12 -45 -28 l-20 -39 38 -25 c57 -38 124 -57 199 -57 79 0 136 23 175 69 23 28
27 42 27 93 0 58 -2 63 -39 98 -29 27 -61 44 -127 65 -91 29 -134 59 -134 94
0 64 103 79 213 32 l47 -20 15 29 c22 42 19 56 -17 73 -83 39 -169 46 -247 22z"/>
<path d="M3890 3855 l0 -285 205 0 205 0 0 40 0 39 -157 3 -158 3 -3 78 -3 77
141 0 140 0 0 45 0 45 -140 0 -140 0 0 75 0 75 155 0 155 0 0 45 0 45 -200 0
-200 0 0 -285z"/>
<path d="M4597 4130 c-170 -43 -261 -199 -213 -365 23 -77 98 -154 175 -180
78 -26 181 -17 249 20 76 41 81 50 47 85 l-27 29 -37 -24 c-80 -53 -166 -53
-242 -2 -82 55 -106 181 -50 269 64 101 216 119 307 36 21 -19 21 -19 49 18
27 36 28 37 9 52 -70 53 -189 81 -267 62z"/>
<path d="M4980 3856 l0 -286 50 0 50 0 0 85 0 85 79 0 79 0 49 -82 49 -83 52
-3 c29 -2 52 0 52 3 0 3 -27 46 -59 94 l-60 88 37 24 c20 13 44 38 54 55 40
68 32 174 -17 232 -42 50 -93 64 -262 70 l-153 5 0 -287z m310 176 c44 -22 62
-56 56 -107 -3 -28 -14 -48 -36 -67 -29 -27 -35 -28 -130 -28 l-100 0 0 110 0
110 88 0 c63 0 97 -5 122 -18z"/>
<path d="M5570 3855 l0 -285 205 0 205 0 0 40 0 39 -157 3 -158 3 -3 78 -3 77
141 0 140 0 0 45 0 45 -140 0 -140 0 0 75 0 75 155 0 155 0 0 45 0 45 -200 0
-200 0 0 -285z"/>
<path d="M6030 4095 l0 -45 90 0 90 0 0 -240 0 -240 45 0 45 0 0 240 0 240 90
0 90 0 0 45 0 45 -225 0 -225 0 0 -45z"/>
<path d="M6702 4103 c-26 -51 -232 -520 -232 -527 0 -3 21 -6 48 -6 l47 0 26
63 25 62 142 3 143 3 29 -66 29 -65 50 0 50 0 -76 173 c-41 94 -97 222 -123
282 l-48 110 -46 3 c-43 3 -46 2 -64 -35z m112 -194 c25 -61 46 -115 46 -120
0 -5 -45 -9 -100 -9 -55 0 -100 4 -100 9 0 17 93 231 100 231 4 0 28 -50 54
-111z"/>
<path d="M7140 3856 l0 -286 45 0 45 0 0 85 0 86 82 -3 83 -3 50 -82 50 -83
53 0 c40 0 51 3 46 13 -4 6 -32 47 -62 90 l-54 78 42 36 c51 44 70 85 70 153
0 88 -36 142 -115 176 -29 12 -82 18 -187 22 l-148 5 0 -287z m293 185 c44
-17 67 -51 67 -99 0 -89 -36 -112 -175 -112 l-95 0 0 110 0 110 89 0 c49 0
101 -4 114 -9z"/>
<path d="M7727 4134 c-4 -4 -7 -133 -7 -286 l0 -278 50 0 50 0 -2 283 -3 282
-40 3 c-23 2 -44 0 -48 -4z"/>
<path d="M8142 4128 c-5 -7 -64 -136 -130 -285 l-120 -273 49 0 49 0 29 65 30
66 143 -3 142 -3 25 -62 24 -63 49 0 c26 0 48 3 48 7 0 4 -55 132 -122 285
l-121 278 -42 0 c-24 0 -47 -6 -53 -12z m103 -226 c26 -62 45 -115 43 -118 -3
-2 -51 -3 -106 -2 l-100 3 51 122 c29 67 55 119 58 115 3 -4 27 -58 54 -120z"/>
<path d="M14540 3230 l0 -800 225 0 225 0 0 209 0 209 228 4 c261 6 327 18
462 88 194 102 294 274 293 505 -2 227 -107 397 -307 495 -161 79 -251 90
-753 90 l-373 0 0 -800z m865 409 c74 -38 108 -92 113 -179 5 -81 -9 -129 -52
-178 -57 -65 -98 -76 -298 -80 l-178 -4 0 237 0 236 183 -3 c173 -3 185 -4
232 -29z"/>
<path d="M16060 3230 l0 -800 225 0 225 0 0 800 0 800 -225 0 -225 0 0 -800z"/>
<path d="M17295 4001 c-11 -23 -598 -1349 -676 -1528 l-18 -43 228 0 229 0 62
155 62 155 342 0 341 0 60 -153 61 -152 233 -3 c220 -2 233 -1 227 15 -4 10
-163 370 -353 801 l-347 782 -218 0 -217 0 -16 -29z m335 -676 c51 -126 94
-236 97 -242 4 -10 -40 -13 -201 -13 -113 0 -206 3 -206 8 0 6 140 362 187
472 11 27 16 32 23 20 4 -8 50 -118 100 -245z"/>
<path d="M18362 3493 c4 -526 4 -540 27 -613 81 -268 269 -425 564 -471 93
-15 312 -6 397 16 36 9 103 35 150 57 68 32 100 56 160 117 89 90 138 179 172
316 22 87 22 104 23 600 l0 510 -220 0 -220 0 -5 -515 -5 -515 -33 -67 c-54
-109 -135 -158 -262 -158 -181 0 -279 103 -300 315 -5 55 -10 290 -10 523 l0
422 -220 0 -221 0 3 -537z"/>
<path d="M19984 4017 c-2 -7 -3 -72 -2 -144 l3 -132 210 135 c116 75 214 140
220 145 5 5 -78 9 -208 9 -169 0 -219 -3 -223 -13z"/>
<path d="M20217 3755 c-115 -74 -215 -139 -223 -146 -12 -10 -14 -104 -14
-595 l0 -584 225 0 225 0 0 730 c0 402 -1 730 -2 730 -2 0 -97 -61 -211 -135z"/>
<path d="M13446 3739 c-361 -34 -742 -184 -1406 -555 -472 -263 -516 -287
-700 -380 -407 -204 -704 -300 -998 -323 -62 -5 -148 -7 -190 -4 l-77 6 -26
-131 -26 -131 45 -7 c82 -12 370 3 475 26 349 74 653 208 1332 585 722 402
1030 538 1380 612 116 24 152 27 328 27 l197 1 0 65 c0 36 3 95 6 131 l7 67
-39 6 c-81 12 -213 14 -308 5z"/>
<path d="M8100 3283 c-105 -19 -191 -77 -232 -158 -30 -57 -35 -158 -13 -226
24 -72 92 -139 171 -169 81 -30 196 -25 269 12 101 53 156 141 156 251 -1 110
-37 183 -119 237 -63 41 -167 65 -232 53z m118 -160 c86 -54 82 -212 -7 -258
-123 -63 -249 78 -183 205 36 69 126 94 190 53z"/>
<path d="M2 2998 l3 -283 151 1 c138 1 155 3 205 26 216 99 225 395 15 506
-48 25 -60 27 -214 30 l-162 4 2 -284z m278 191 c99 -23 155 -100 148 -205 -5
-78 -38 -133 -100 -163 -35 -17 -63 -21 -136 -21 l-92 0 0 200 0 200 68 0 c37
0 87 -5 112 -11z"/>
<path d="M773 3264 c-59 -21 -132 -89 -159 -149 -51 -108 -23 -250 64 -326 61
-54 117 -74 207 -74 90 0 146 20 207 74 87 76 115 218 64 326 -28 62 -101 128
-163 149 -57 20 -164 19 -220 0z m172 -75 c75 -21 145 -115 145 -195 0 -33
-20 -86 -47 -122 -72 -97 -244 -97 -316 0 -67 90 -59 197 21 271 53 50 122 66
197 46z"/>
<path d="M1540 2995 l0 -286 83 3 82 3 3 78 3 77 78 0 c152 0 233 73 233 209
0 100 -48 165 -141 191 -20 5 -105 10 -188 10 l-153 0 0 -285z m305 135 c11
-12 19 -36 19 -55 0 -54 -26 -75 -96 -75 l-58 0 0 75 0 75 58 0 c47 0 63 -4
77 -20z"/>
<path d="M2082 2998 l3 -283 200 0 200 0 3 68 3 67 -121 0 -120 0 0 215 0 215
-85 0 -85 0 2 -282z"/>
<path d="M2622 2999 c-85 -197 -117 -282 -108 -285 7 -3 46 -4 86 -2 l72 3 18
45 18 45 111 3 112 3 21 -51 21 -50 83 0 c61 0 84 3 84 13 0 6 -50 135 -112
285 l-112 272 -87 0 -87 0 -120 -281z m231 36 c14 -38 28 -78 32 -87 6 -16 0
-18 -59 -18 -36 0 -66 4 -66 9 0 13 62 173 65 169 1 -2 14 -34 28 -73z"/>
<path d="M3190 2995 l0 -285 75 0 75 0 0 155 c0 85 3 155 8 155 4 -1 59 -69
122 -153 l115 -152 70 0 70 0 3 283 2 282 -75 0 -74 0 -3 -157 -3 -158 -120
157 -120 158 -72 0 -73 0 0 -285z"/>
<path d="M3822 2998 l3 -283 235 0 235 0 3 63 3 62 -156 0 -155 0 0 45 0 45
135 0 135 0 0 65 0 65 -135 0 -135 0 0 45 0 45 150 0 150 0 0 65 0 65 -235 0
-235 0 2 -282z"/>
<path d="M4380 3215 l0 -65 95 0 95 0 0 -131 c0 -72 -5 -139 -10 -150 -16 -29
-69 -25 -118 11 l-41 29 -37 -51 c-44 -59 -41 -68 29 -112 82 -50 214 -48 283
6 56 45 64 82 64 316 l0 212 -180 0 -180 0 0 -65z"/>
<path d="M4886 3007 c-64 -149 -116 -278 -116 -285 0 -10 20 -12 81 -10 l81 3
18 45 18 45 111 3 112 3 22 -51 21 -50 83 0 c60 0 83 4 83 13 0 6 -50 135
-112 285 l-112 272 -87 0 -87 0 -116 -273z m233 14 c17 -47 31 -86 31 -88 0
-2 -29 -3 -65 -3 -36 0 -65 3 -65 7 0 11 63 174 66 171 1 -2 16 -41 33 -87z"/>
<path d="M5452 2998 l3 -283 73 -3 72 -3 0 168 1 168 56 -137 57 -138 55 0 56
0 55 138 55 137 3 -168 2 -168 73 3 72 3 3 283 2 282 -93 0 -93 0 -44 -102
c-24 -57 -55 -128 -68 -158 l-24 -54 -67 154 -67 155 -92 3 -92 3 2 -283z"/>
<path d="M6182 2998 l3 -283 233 -3 232 -2 0 65 0 65 -150 0 -150 0 0 45 0 44
133 3 132 3 3 63 3 62 -136 0 -135 0 0 45 0 45 145 0 145 0 0 65 0 65 -230 0
-230 0 2 -282z"/>
<path d="M6732 2998 l3 -283 75 0 75 0 5 154 5 154 119 -156 119 -157 68 0 69
0 0 285 0 285 -75 0 -74 0 -3 -156 -3 -156 -118 156 -118 156 -75 0 -74 0 2
-282z"/>
<path d="M7330 3215 l0 -65 80 0 80 0 0 -220 0 -221 83 3 82 3 3 218 2 217 80
0 80 0 0 65 0 65 -245 0 -245 0 0 -65z"/>
<path d="M13305 3240 c-361 -65 -725 -220 -1415 -605 -849 -474 -1228 -619
-1651 -632 -174 -6 -331 9 -407 38 -14 5 -27 7 -30 4 -10 -10 -52 -249 -44
-256 4 -4 50 -15 102 -25 132 -24 398 -24 545 0 410 66 762 207 1485 598 703
379 915 477 1215 563 177 51 312 68 500 62 166 -5 211 -12 381 -62 21 -6 22
-3 29 125 4 73 3 136 -2 141 -4 4 -55 20 -113 35 -91 23 -130 27 -295 30 -157
3 -209 0 -300 -16z"/>
<path d="M13295 2751 c-334 -59 -601 -171 -1330 -559 -613 -326 -928 -468
-1238 -556 -245 -71 -377 -90 -612 -91 -110 0 -214 3 -231 7 l-30 7 -25 -133
-25 -133 66 -7 c315 -29 734 41 1147 195 232 86 455 190 1018 474 767 387 979
470 1325 521 130 19 349 15 456 -9 l61 -13 6 135 c3 75 3 139 -1 143 -4 4 -47
14 -97 22 -122 22 -359 20 -490 -3z"/>
<path d="M5428 2421 c-75 -25 -128 -85 -128 -146 0 -39 24 -89 54 -113 15 -11
70 -35 121 -52 129 -43 162 -84 110 -135 -20 -21 -34 -25 -84 -25 -49 0 -72 6
-127 35 -37 19 -68 34 -69 33 -1 -2 -10 -18 -20 -37 l-18 -35 29 -23 c56 -45
131 -65 220 -61 127 7 194 61 194 157 0 86 -40 124 -182 170 -90 30 -120 54
-116 94 4 43 37 59 109 54 30 -3 75 -15 98 -27 24 -12 44 -20 46 -18 8 9 35
68 35 76 0 5 -23 19 -51 32 -57 24 -176 35 -221 21z"/>
<path d="M5830 2145 l0 -285 205 0 205 0 0 40 0 40 -160 0 -160 0 0 80 0 80
141 0 140 0 -3 43 -3 42 -137 3 -138 3 0 74 0 75 156 0 155 0 -3 43 -3 42
-197 3 -198 2 0 -285z"/>
<path d="M6360 2146 l0 -286 45 0 45 0 0 84 0 84 108 4 c120 4 174 24 211 77
44 61 44 180 1 241 -39 55 -94 72 -261 78 l-149 5 0 -287z m295 180 c42 -18
55 -42 55 -100 0 -33 -6 -52 -24 -73 -23 -27 -28 -28 -130 -31 l-106 -4 0 111
0 111 85 0 c51 0 99 -6 120 -14z"/>
<path d="M6897 2424 c-4 -4 -7 -133 -7 -286 l0 -278 170 0 170 0 0 45 0 45
-120 0 -120 0 -2 238 -3 237 -40 3 c-23 2 -44 0 -48 -4z"/>
<path d="M7497 2403 c-21 -40 -237 -530 -237 -537 0 -3 21 -6 48 -6 l47 0 26
63 25 62 142 3 143 3 29 -66 29 -65 50 0 50 0 -76 173 c-41 94 -97 222 -123
282 l-48 110 -46 3 c-41 3 -46 0 -59 -25z m107 -204 c25 -61 46 -115 46 -120
0 -5 -45 -9 -100 -9 -55 0 -100 4 -100 9 0 17 93 231 100 231 4 0 28 -50 54
-111z"/>
<path d="M7930 2145 l0 -285 45 0 45 0 2 201 3 201 148 -201 149 -201 49 0 49
0 -2 283 -3 282 -45 0 -45 0 -5 -198 -5 -198 -150 201 -150 200 -42 0 -43 0 0
-285z"/>
<path d="M13397 2279 c-171 -19 -395 -80 -605 -163 -177 -70 -404 -177 -887
-419 -428 -214 -529 -261 -745 -347 -442 -176 -825 -260 -1181 -260 l-136 0
-22 -112 c-12 -62 -24 -121 -27 -130 -5 -16 4 -18 94 -18 288 0 689 75 1076
200 295 96 532 198 1206 517 330 157 412 194 585 263 324 129 641 198 871 188
l82 -3 6 50 c3 28 6 91 6 141 l0 91 -37 7 c-49 8 -200 5 -286 -5z"/>
<path d="M15045 2125 c-86 -30 -139 -128 -116 -214 6 -24 21 -56 31 -72 22
-29 94 -69 127 -69 11 0 28 -9 39 -21 29 -32 68 -49 112 -49 47 0 94 31 76 50
-9 9 -17 9 -32 1 -28 -15 -73 -13 -94 3 -23 17 -23 23 5 30 12 3 34 17 49 31
82 76 85 190 9 266 -55 56 -129 71 -206 44z m160 -66 c43 -38 59 -89 44 -143
-35 -128 -217 -136 -264 -11 -23 59 -10 110 40 154 31 27 44 31 90 31 46 0 59
-4 90 -31z"/>
<path d="M20045 2121 c-107 -48 -144 -175 -80 -272 49 -75 172 -102 262 -58
51 25 78 59 94 122 31 113 -65 227 -191 227 -25 0 -63 -9 -85 -19z m161 -85
c27 -27 34 -42 34 -75 0 -76 -40 -121 -109 -121 -70 0 -111 44 -111 121 0 33
6 47 34 75 28 28 42 34 76 34 34 0 48 -6 76 -34z"/>
<path d="M14687 2103 c-20 -39 -147 -322 -147 -328 0 -3 11 -5 24 -5 19 0 28
9 43 45 l18 45 100 0 100 0 18 -45 c15 -36 24 -45 43 -45 13 0 24 3 24 8 0 4
-35 84 -78 177 -70 153 -80 170 -104 173 -21 3 -30 -3 -41 -25z m107 -180 c7
-22 6 -23 -68 -23 -42 0 -76 3 -76 6 0 3 17 44 37 92 l37 86 32 -70 c17 -38
34 -79 38 -91z"/>
<path d="M15380 1998 c0 -153 12 -188 77 -215 54 -22 135 -13 169 18 44 40 54
78 54 209 l0 120 -25 0 -25 0 0 -120 c0 -142 -11 -174 -65 -189 -45 -12 -99 2
-120 32 -11 16 -15 51 -15 149 l0 128 -25 0 -25 0 0 -132z"/>
<path d="M15780 1950 l0 -180 25 0 25 0 0 180 0 180 -25 0 -25 0 0 -180z"/>
<path d="M16030 2110 c0 -18 7 -20 60 -20 l60 0 0 -160 0 -160 25 0 25 0 0
160 0 160 65 0 c58 0 65 2 65 20 0 19 -7 20 -150 20 -143 0 -150 -1 -150 -20z"/>
<path d="M16380 1950 l0 -180 130 0 130 0 0 25 0 25 -105 0 -105 0 0 60 0 60
90 0 c83 0 90 1 90 20 0 19 -7 20 -90 20 l-90 0 0 55 0 55 100 0 c93 0 100 1
100 20 0 19 -7 20 -125 20 l-125 0 0 -180z"/>
<path d="M16710 1950 l0 -180 25 0 25 0 0 133 0 132 63 -105 c35 -58 70 -106
78 -108 10 -2 37 34 80 105 l64 108 3 -133 c3 -131 3 -133 25 -130 20 3 22 9
25 78 2 41 0 121 -3 178 -10 143 -22 140 -118 -23 l-74 -125 -73 125 c-61 102
-78 125 -97 125 l-23 0 0 -180z"/>
<path d="M17290 2100 l0 -30 60 0 60 0 0 -150 0 -150 40 0 40 0 0 150 0 150
60 0 60 0 0 30 0 30 -160 0 -160 0 0 -30z"/>
<path d="M17650 1951 l0 -181 40 0 40 0 0 50 0 50 43 0 c39 0 44 -3 75 -50 30
-46 35 -50 72 -50 22 0 40 4 40 8 0 5 -16 31 -35 58 l-35 49 23 20 c34 28 47
57 47 104 0 33 -7 49 -34 79 l-34 37 -121 3 -121 4 0 -181z m210 94 c26 -23
26 -59 0 -85 -15 -15 -33 -20 -75 -20 l-55 0 0 66 0 66 55 -4 c34 -3 62 -12
75 -23z"/>
<path d="M18077 1956 c-42 -96 -77 -177 -77 -180 0 -3 18 -6 40 -6 38 0 41 3
56 40 l16 40 85 0 85 0 15 -40 c15 -38 18 -40 60 -40 23 0 43 1 43 3 0 1 -35
81 -79 177 l-78 175 -44 3 -45 3 -77 -175z m151 25 c12 -29 22 -58 22 -62 0
-5 -25 -9 -56 -9 -41 0 -55 3 -51 13 36 89 53 125 58 119 3 -4 15 -31 27 -61z"/>
<path d="M18440 1951 l0 -181 103 0 c56 0 120 5 142 10 83 19 113 106 55 160
-29 27 -29 28 -10 45 30 27 27 85 -6 116 -24 22 -34 24 -155 27 l-129 4 0
-181z m224 97 c21 -35 -4 -53 -78 -56 l-66 -3 0 41 0 41 66 -3 c51 -2 70 -7
78 -20z m13 -141 c14 -13 14 -21 5 -42 -11 -24 -16 -25 -87 -25 l-75 0 0 38
c0 21 3 42 8 46 13 14 131 1 149 -17z"/>
<path d="M18867 1958 c-42 -95 -77 -176 -77 -180 0 -5 18 -8 39 -8 36 0 40 3
55 40 l16 40 85 0 85 0 16 -40 c15 -38 18 -40 60 -40 51 0 56 -24 -44 200
l-70 155 -44 3 -44 3 -77 -173z m172 -35 c1 -9 -16 -13 -54 -13 -30 0 -55 2
-55 5 0 2 12 34 27 71 l28 66 26 -58 c15 -33 28 -65 28 -71z"/>
<path d="M19230 1950 l0 -180 130 0 130 0 0 35 0 35 -90 0 -90 0 0 145 0 145
-40 0 -40 0 0 -180z"/>
<path d="M19540 1950 l0 -180 40 0 40 0 0 75 0 75 80 0 79 0 3 -72 3 -73 43
-3 42 -3 0 180 0 181 -45 0 -45 0 0 -70 0 -70 -80 0 -80 0 0 70 0 70 -40 0
-40 0 0 -180z"/>
<path d="M20364 1826 c-10 -25 0 -51 20 -54 27 -6 48 25 35 49 -12 22 -47 25
-55 5z"/>
<path d="M12785 1608 c-171 -67 -374 -156 -698 -307 -714 -333 -1023 -453
-1437 -556 -162 -40 -309 -69 -445 -86 -55 -7 -101 -13 -102 -14 -2 -1 -32
-143 -46 -221 l-6 -31 52 8 c659 109 1123 249 1827 552 527 226 668 286 781
328 l116 44 6 149 c4 83 5 151 4 152 -1 1 -24 -7 -52 -18z"/>
<path d="M14622 1362 c-45 -98 -82 -182 -82 -185 0 -4 11 -7 24 -7 19 0 28 9
43 45 l18 45 100 0 100 0 18 -45 c15 -36 24 -45 43 -45 13 0 24 4 24 8 0 5
-36 87 -80 183 -108 236 -101 236 -208 1z m178 -48 c0 -2 -34 -4 -76 -4 -57 0
-75 3 -71 13 3 6 20 45 38 86 l33 74 38 -83 c21 -45 38 -84 38 -86z"/>
<path d="M15035 1521 c-67 -30 -117 -107 -114 -176 2 -71 64 -146 137 -165 26
-7 58 -23 72 -35 36 -32 64 -45 100 -45 34 0 90 25 90 41 0 15 -30 23 -43 10
-16 -16 -69 -13 -92 5 -13 11 -16 18 -8 21 30 11 79 51 99 80 80 119 -13 283
-161 283 -22 0 -58 -9 -80 -19z m170 -62 c99 -87 43 -239 -89 -239 -64 0 -109
28 -130 80 -21 52 -20 65 4 114 26 54 62 75 127 76 44 0 58 -5 88 -31z"/>
<path d="M15380 1403 c0 -159 12 -192 77 -220 47 -19 125 -13 161 14 51 37 62
75 62 216 0 127 0 128 -22 125 -22 -3 -23 -7 -25 -118 -3 -137 -7 -153 -35
-180 -29 -27 -106 -28 -139 -1 -23 18 -24 27 -29 158 -5 134 -6 138 -27 141
-23 3 -23 3 -23 -135z"/>
<path d="M15780 1355 l0 -185 25 0 25 0 0 185 0 185 -25 0 -25 0 0 -185z"/>
<path d="M16030 1515 c0 -24 2 -25 60 -25 l60 0 0 -160 0 -160 25 0 25 0 0
160 0 159 63 3 c54 3 62 5 62 23 0 19 -8 20 -147 23 l-148 3 0 -26z"/>
<path d="M16380 1355 l0 -185 130 0 130 0 0 25 0 25 -105 0 -105 0 0 60 0 60
90 0 c83 0 90 1 90 20 0 19 -7 20 -90 20 l-90 0 0 55 0 55 100 0 100 0 0 25 0
25 -125 0 -125 0 0 -185z"/>
<path d="M16710 1355 l0 -185 25 0 24 0 3 131 3 130 61 -103 c33 -57 67 -104
75 -106 9 -1 39 39 79 105 l65 108 3 -133 c3 -131 3 -133 25 -130 20 3 22 9
25 73 2 39 0 121 -3 183 -6 97 -9 113 -24 110 -9 -2 -49 -58 -89 -126 -40 -67
-77 -120 -81 -117 -5 2 -40 58 -80 125 -53 88 -77 120 -91 120 -19 0 -20 -8
-20 -185z"/>
<path d="M17335 1527 c-3 -7 -4 -89 -3 -182 l3 -170 40 0 40 0 3 68 3 67 79 0
80 0 0 30 0 30 -80 0 -80 0 0 50 0 50 96 0 95 0 -3 33 -3 32 -133 3 c-102 2
-134 0 -137 -11z"/>
<path d="M17660 1413 c0 -141 11 -179 63 -217 40 -29 140 -34 187 -8 63 35 75
69 75 217 l0 130 -40 0 -40 0 -5 -133 c-4 -117 -7 -135 -24 -148 -28 -20 -80
-17 -107 5 -23 18 -24 27 -27 150 l-4 131 -39 0 -39 0 0 -127z"/>
<path d="M18030 1505 l0 -35 55 0 54 0 3 -147 3 -148 40 0 40 0 3 148 3 147
54 0 55 0 0 35 0 35 -155 0 -155 0 0 -35z"/>
<path d="M18384 1526 c-3 -9 -5 -69 -3 -133 5 -134 19 -172 79 -205 47 -26
147 -21 187 8 52 38 63 76 63 217 l0 127 -39 0 -39 0 -4 -131 c-3 -123 -4
-132 -27 -150 -27 -22 -79 -25 -107 -5 -17 13 -20 31 -24 148 l-5 133 -38 3
c-26 2 -39 -1 -43 -12z"/>
<path d="M18795 1529 c-3 -8 -4 -91 -3 -184 l3 -170 40 0 40 0 3 48 3 47 37 0
c34 0 42 -6 75 -50 34 -45 41 -50 77 -50 22 0 40 2 40 5 0 3 -16 27 -35 54
-19 26 -35 51 -35 54 0 3 13 19 29 35 59 58 45 154 -27 195 -44 26 -239 38
-247 16z m209 -78 c9 -8 16 -28 16 -47 0 -43 -30 -64 -92 -64 l-48 0 0 66 0
66 54 -4 c30 -3 62 -10 70 -17z"/>
<path d="M19260 1524 c-45 -20 -68 -41 -91 -86 -35 -68 -17 -170 38 -220 95
-86 279 -49 322 65 24 63 10 150 -32 196 -52 56 -163 77 -237 45z m134 -64
c71 -26 86 -139 27 -192 -60 -54 -159 -26 -182 50 -29 99 58 179 155 142z"/>
<path d="M19581 1226 c-26 -31 14 -71 45 -45 21 17 14 53 -12 57 -11 2 -26 -4
-33 -12z"/>
<path d="M11345 519 c-157 -61 -608 -183 -900 -244 l-160 -33 -22 -103 c-27
-126 -27 -129 -7 -129 56 0 839 184 1054 247 l95 28 7 55 c11 99 9 200 -4 200
-7 -1 -35 -10 -63 -21z"/>
</g>
</svg>
